<svg xmlns="http://www.w3.org/2000/svg" viewBox="0 0 360 150" role="img" aria-label="وزارة التعليم"><defs><linearGradient id="g" x1="0" x2="1"><stop stop-color="#0aa58f"/><stop offset="1" stop-color="#1788a8"/></linearGradient></defs><g fill="url(#g)"><circle cx="118" cy="28" r="6"/><circle cx="136" cy="24" r="5"/><circle cx="154" cy="21" r="4"/><circle cx="172" cy="20" r="4"/><circle cx="190" cy="21" r="4"/><circle cx="208" cy="24" r="5"/><circle cx="226" cy="28" r="6"/><circle cx="109" cy="43" r="6"/><circle cx="128" cy="39" r="6"/><circle cx="148" cy="35" r="5"/><circle cx="172" cy="31" r="5"/><circle cx="196" cy="35" r="5"/><circle cx="216" cy="39" r="6"/><circle cx="235" cy="43" r="6"/><circle cx="101" cy="59" r="6"/><circle cx="121" cy="55" r="6"/><circle cx="143" cy="50" r="6"/><circle cx="172" cy="43" r="7"/><circle cx="201" cy="50" r="6"/><circle cx="223" cy="55" r="6"/><circle cx="243" cy="59" r="6"/></g><text x="172" y="100" text-anchor="middle" font-size="30" font-family="Arial, Tahoma, sans-serif" font-weight="700" fill="#178b89">وزارة التعليم</text><text x="172" y="126" text-anchor="middle" font-size="18" font-family="Arial, sans-serif" fill="#1788a8">Ministry of Education</text></svg>